<svg width="39" height="40" viewBox="0 0 39 40" fill="none" xmlns="http://www.w3.org/2000/svg">
<path fill-rule="evenodd" clip-rule="evenodd" d="M16.4531 9.02734C15.9683 9.02734 15.5033 9.21995 15.1604 9.56279C14.8176 9.90563 14.625 10.3706 14.625 10.8555V13.9023C14.625 14.5754 14.0793 15.1211 13.4062 15.1211C12.7332 15.1211 12.1875 14.5754 12.1875 13.9023V10.8555C12.1875 9.72415 12.6369 8.63918 13.4369 7.83922C14.2368 7.03926 15.3218 6.58984 16.4531 6.58984H32.2969C33.4282 6.58984 34.5132 7.03926 35.3131 7.83922C36.1131 8.63918 36.5625 9.72415 36.5625 10.8555V29.1367C36.5625 30.268 36.1131 31.353 35.3131 32.153C34.5132 32.9529 33.4282 33.4023 32.2969 33.4023H16.4531C15.3218 33.4023 14.2368 32.9529 13.4369 32.153C12.6369 31.353 12.1875 30.268 12.1875 29.1367V26.0898C12.1875 25.4167 12.7332 24.8711 13.4062 24.8711C14.0793 24.8711 14.625 25.4167 14.625 26.0898V29.1367C14.625 29.6216 14.8176 30.0866 15.1604 30.4294C15.5033 30.7722 15.9683 30.9648 16.4531 30.9648H32.2969C32.7817 30.9648 33.2467 30.7722 33.5896 30.4294C33.9324 30.0866 34.125 29.6216 34.125 29.1367V10.8555C34.125 10.3706 33.9324 9.90563 33.5896 9.56279C33.2467 9.21995 32.7817 9.02734 32.2969 9.02734H16.4531ZM19.857 13.0406C20.3329 12.5646 21.1046 12.5646 21.5805 13.0406L27.6743 19.1343C28.1502 19.6103 28.1502 20.3819 27.6743 20.8579L21.5805 26.9516C21.1046 27.4276 20.3329 27.4276 19.857 26.9516C19.381 26.4757 19.381 25.704 19.857 25.2281L23.8702 21.2148H3.65625C2.98315 21.2148 2.4375 20.6692 2.4375 19.9961C2.4375 19.323 2.98315 18.7773 3.65625 18.7773H23.8702L19.857 14.7641C19.381 14.2882 19.381 13.5165 19.857 13.0406Z" fill="#EAD08D"/>
</svg>
